<?xml version="1.0" standalone="no"?>
<!DOCTYPE svg PUBLIC "-//W3C//DTD SVG 20010904//EN"
 "http://www.w3.org/TR/2001/REC-SVG-20010904/DTD/svg10.dtd">
<svg version="1.0" xmlns="http://www.w3.org/2000/svg"
 width="651.000000pt" height="651.000000pt" viewBox="0 0 651.000000 651.000000"
 preserveAspectRatio="xMidYMid meet">
<metadata>
Created by potrace 1.11, written by Peter Selinger 2001-2013
</metadata>
<g transform="translate(0.000000,651.000000) scale(0.100000,-0.100000)"
fill="#000000" stroke="none">
<path d="M3049 6336 c-2 -2 -49 -7 -104 -11 -55 -4 -102 -8 -105 -10 -3 -2
-27 -6 -55 -9 -99 -13 -279 -50 -345 -70 -25 -8 -79 -24 -120 -36 -86 -26
-336 -122 -395 -153 -22 -12 -42 -21 -45 -22 -13 -1 -264 -144 -330 -188 -713
-475 -1180 -1172 -1345 -2007 -3 -14 -10 -54 -16 -90 -5 -36 -12 -76 -14 -90
-20 -124 -27 -545 -12 -690 17 -153 39 -288 68 -410 17 -69 32 -132 34 -140 8
-41 77 -237 115 -329 156 -380 383 -722 676 -1015 86 -87 237 -221 288 -255
12 -8 23 -18 26 -21 3 -3 28 -22 55 -41 28 -18 52 -37 55 -40 3 -3 57 -38 120
-78 144 -90 329 -184 485 -246 66 -26 129 -51 140 -56 20 -8 169 -53 235 -70
60 -15 263 -57 310 -63 25 -3 56 -8 70 -11 96 -19 577 -27 700 -12 30 4 78 10
105 13 95 10 350 65 470 101 968 288 1730 1023 2054 1979 63 188 92 308 131
549 31 193 34 729 5 835 -2 8 -7 38 -10 65 -4 28 -8 57 -10 65 -2 8 -7 31 -10
50 -3 19 -11 55 -16 80 -6 25 -12 53 -14 62 -10 48 -59 219 -81 282 -122 346
-313 687 -540 962 -106 127 -312 335 -404 405 -19 15 -44 35 -55 46 -31 29
-232 172 -260 185 -14 6 -25 15 -25 20 0 4 -4 8 -10 8 -5 0 -40 19 -77 42
-190 117 -559 269 -778 320 -22 5 -56 13 -75 17 -88 22 -214 44 -320 56 -30 4
-66 9 -80 12 -30 6 -485 14 -491 9z"/>
</g>
</svg>
