<svg id="Layer_1" data-name="Layer 1" xmlns="http://www.w3.org/2000/svg" viewBox="0 0 437.79 56.34"><defs><style>.cls-1{fill:#0091ff;}.cls-2{font-size:28px;fill:#909090;font-family:Eurostile-Bol, Eurostile;font-weight:700;}.cls-3{letter-spacing:0.01em;}.cls-4{letter-spacing:0.02em;}</style></defs><title>mmi_nppa_logo</title><path class="cls-1" d="M37.06,27.12h-.32L25,7.38c-1.48-2.44-3-3.28-5.92-3.28H7.35v45H20.41V23.39h.32L34.62,45.83c1.54,2.44,3,3.28,5.91,3.28h9.58V4.1h-13Z" transform="translate(-7.35 0.03)"/><path class="cls-1" d="M122.23,24.36c-.38.38-1.09.51-3.6.51h-6.81V14.32h6.81c2.51,0,3.15.13,3.6.52.64.58,1,1.41,1,4.69s-.32,4.18-1,4.83M133.78,6.09c-1.61-1.41-4.31-2-8.36-2H98.35v45h13.82v-14h13.25c4,0,6.75-.58,8.36-2,2.18-1.93,4.11-4.89,4.11-13.5S136,8,133.78,6.09" transform="translate(-7.35 0.03)"/><path class="cls-1" d="M79.47,24.36c-.39.38-1.09.51-3.6.51H69.05V14.32h6.82c2.51,0,3.15.13,3.6.52.64.58,1,1.41,1,4.69s-.32,4.18-1,4.83M90.3,6.09c-1.61-1.41-4.31-2-8.36-2H54.87v45H68.7v-14H81.94c4,0,6.75-.58,8.36-2,2.19-1.93,4.12-4.89,4.12-13.5S92.49,8,90.3,6.09" transform="translate(-7.35 0.03)"/><path class="cls-1" d="M152.58,29.76l3.86-13.25h.71L161,29.76ZM167.5,8.15c-1.1-3.34-1.67-4.24-4.76-4.24H151.68c-3.09,0-3.6.83-4.76,4.24l-13.63,41h13.82l2.77-9.71H163.7l2.83,9.71h14.6Z" transform="translate(-7.35 0.03)"/><text class="cls-2" transform="translate(190.76 23.34)">Mul<tspan class="cls-3" x="46.03" y="0">t</tspan><tspan x="56.92" y="0">imedia</tspan><tspan x="0" y="26">Imme</tspan><tspan class="cls-4" x="66.64" y="26">r</tspan><tspan x="78.85" y="26">sion</tspan></text></svg>