<svg id="Layer_1" data-name="Layer 1" xmlns="http://www.w3.org/2000/svg" viewBox="0 0 333.5 56.34"><defs><style>.cls-1{fill:#0091ff;}.cls-2{font-size:28px;fill:#909090;font-family:Eurostile-Bol, Eurostile;font-weight:700;}.cls-3{letter-spacing:0.01em;}.cls-4{letter-spacing:0.02em;}</style></defs><title>nppa_logo_mmi</title><path class="cls-1" d="M233.71,118h-.33l-11.7-19.74c-1.48-2.44-3-3.28-5.91-3.28H204v45h13.05V114.28h.32l13.89,22.44c1.55,2.44,3,3.28,5.92,3.28h9.58V95h-13Z" transform="translate(-204 -90.86)"/><path class="cls-1" d="M318.88,115.25c-.39.38-1.1.51-3.6.51h-6.82V105.22h6.82c2.5,0,3.15.12,3.6.51.64.58,1,1.41,1,4.69s-.33,4.18-1,4.83M330.42,97c-1.61-1.42-4.31-2-8.36-2H295v45h13.83V126h13.24c4.05,0,6.75-.57,8.36-2,2.19-1.93,4.12-4.89,4.12-13.5s-1.93-11.58-4.12-13.5" transform="translate(-204 -90.86)"/><path class="cls-1" d="M276.11,115.25c-.38.38-1.09.51-3.6.51H265.7V105.22h6.81c2.51,0,3.15.12,3.6.51.65.58,1,1.41,1,4.69s-.32,4.18-1,4.83M287,97c-1.61-1.42-4.31-2-8.36-2H251.52v45h13.82V126h13.25c4.05,0,6.75-.57,8.36-2,2.18-1.93,4.11-4.89,4.11-13.5S289.13,98.91,287,97" transform="translate(-204 -90.86)"/><path class="cls-1" d="M349.23,120.65l3.85-13.25h.71l3.86,13.25ZM364.14,99c-1.09-3.34-1.67-4.24-4.76-4.24H348.32c-3.08,0-3.6.84-4.75,4.24l-13.63,41h13.82l2.76-9.71h13.83l2.83,9.71h14.59Z" transform="translate(-204 -90.86)"/><text class="cls-2" transform="translate(190.76 23.34)">Mul<tspan class="cls-3" x="46.03" y="0">t</tspan><tspan x="56.92" y="0">imedia </tspan><tspan x="0" y="26" xml:space="preserve"> Imme</tspan><tspan class="cls-4" x="73.64" y="26">r</tspan><tspan x="85.85" y="26">sion </tspan></text></svg>