<?xml version="1.0" encoding="utf-8"?>
<svg xmlns="http://www.w3.org/2000/svg"
	xmlns:xlink="http://www.w3.org/1999/xlink"
	width="27px" height="27px" viewBox="0 0 27 27">
<path fillRule="evenodd" d="M 24.94 26.72C 24.94 26.72 2.36 26.72 2.36 26.72 1.23 26.72 0.3 25.9 0.3 24.79 0.3 24.79 0.3 2.52 0.3 2.52 0.3 1.4 1.23 0.5 2.36 0.5 2.36 0.5 24.94 0.5 24.94 0.5 26.07 0.5 26.99 1.4 26.99 2.52 26.99 2.52 26.99 24.79 26.99 24.79 26.99 25.9 26.07 26.72 24.94 26.72ZM 11.68 5.56C 10.46 5.56 9.28 5.75 8.48 6.13 7.68 6.51 7.11 7.19 6.81 7.8 6.52 8.4 6.37 9.14 6.37 10.38 6.37 10.38 6.37 11.55 6.37 11.55 6.37 11.55 4.37 11.55 4.37 11.55 4.37 11.55 4.37 14.62 4.37 14.62 4.37 14.62 6.37 14.62 6.37 14.62 6.37 14.62 6.37 24.82 6.37 24.82 6.37 24.82 10.64 24.82 10.64 24.82 10.64 24.82 10.64 14.62 10.64 14.62 10.64 14.62 13.3 14.62 13.3 14.62 13.3 14.62 14.04 11.55 14.04 11.55 14.04 11.55 10.64 11.55 10.64 11.55 10.64 11.55 10.64 10.45 10.64 10.45 10.64 9.7 10.77 9.2 11.05 8.93 11.33 8.67 11.87 8.52 12.51 8.52 13.15 8.52 13.67 8.81 14.32 9.18 14.32 9.18 15.1 6.3 15.1 6.3 13.9 5.97 12.93 5.56 11.68 5.56Z" fill="rgb(255,255,255)"/></svg>