<svg id="Layer_1" data-name="Layer 1" xmlns="http://www.w3.org/2000/svg" viewBox="0 0 173.77 45.2"><defs><style>.cls-1{fill:#0091ff;}</style></defs><title>nppa_logo_only</title><path class="cls-1" d="M83.71,147h-.33l-11.7-19.74c-1.48-2.44-3-3.28-5.91-3.28H54v45h13V143.28h.32l13.89,22.44c1.55,2.44,3,3.28,5.92,3.28h9.58V124H83.71Z" transform="translate(-54 -123.8)"/><path class="cls-1" d="M168.88,144.25c-.39.38-1.1.51-3.6.51h-6.82V134.22h6.82c2.5,0,3.15.12,3.6.51.64.58,1,1.41,1,4.69s-.33,4.18-1,4.83M180.42,126c-1.61-1.42-4.31-2-8.36-2H145v45h13.83V155h13.24c4.05,0,6.75-.57,8.36-2,2.19-1.93,4.12-4.89,4.12-13.5s-1.93-11.58-4.12-13.5" transform="translate(-54 -123.8)"/><path class="cls-1" d="M126.11,144.25c-.38.38-1.09.51-3.6.51H115.7V134.22h6.81c2.51,0,3.15.12,3.6.51.65.58,1,1.41,1,4.69s-.32,4.18-1,4.83M137,126c-1.61-1.42-4.31-2-8.36-2H101.52v45h13.82V155h13.25c4,0,6.75-.57,8.36-2,2.18-1.93,4.11-4.89,4.11-13.5S139.13,127.91,137,126" transform="translate(-54 -123.8)"/><path class="cls-1" d="M199.23,149.65l3.85-13.25h.71l3.86,13.25ZM214.14,128c-1.09-3.34-1.67-4.24-4.76-4.24H198.32c-3.08,0-3.6.84-4.75,4.24l-13.63,41h13.82l2.76-9.71h13.83l2.83,9.71h14.59Z" transform="translate(-54 -123.8)"/></svg>