<svg xmlns="http://www.w3.org/2000/svg" viewBox="0 0 401 56.34"><defs><style>.cls-1{fill:#0091ff;}.cls-2{font-size:28px;fill:#909090;font-family:Eurostile-Bol, Eurostile;}.cls-3{letter-spacing:0em;}.cls-4{letter-spacing:0.01em;}.cls-5{letter-spacing:0em;}.cls-6{letter-spacing:0.01em;}.cls-7{letter-spacing:0.01em;}.cls-8{letter-spacing:0em;}.cls-9{letter-spacing:0.01em;}</style></defs><g id="Layer_2" data-name="Layer 2"><g id="Layer_1-2" data-name="Layer 1"><path class="cls-1" d="M29.71,27.15h-.33L17.68,7.41c-1.48-2.44-3-3.28-5.91-3.28H0v45H13.05V23.42h.32L27.26,45.86c1.55,2.44,3,3.28,5.92,3.28h9.58v-45h-13Z"/><path class="cls-1" d="M114.88,24.38c-.39.39-1.1.52-3.6.52h-6.82V14.35h6.82c2.5,0,3.15.13,3.6.52.64.58,1,1.41,1,4.69s-.33,4.18-1,4.82M126.42,6.12c-1.61-1.41-4.31-2-8.36-2H91v45h13.83v-14h13.24c4,0,6.75-.58,8.36-2,2.19-1.93,4.12-4.89,4.12-13.5s-1.93-11.58-4.12-13.51"/><path class="cls-1" d="M72.11,24.38c-.38.39-1.09.52-3.6.52H61.7V14.35h6.81c2.51,0,3.15.13,3.6.52.65.58,1,1.41,1,4.69s-.32,4.18-1,4.82M83,6.12c-1.61-1.41-4.31-2-8.36-2H47.52v45H61.34v-14H74.59c4,0,6.75-.58,8.36-2,2.18-1.93,4.11-4.89,4.11-13.5S85.13,8.05,83,6.12"/><path class="cls-1" d="M145.23,29.79l3.85-13.25h.71l3.86,13.25ZM160.14,8.18c-1.09-3.34-1.67-4.24-4.76-4.24H144.32c-3.08,0-3.6.83-4.75,4.24l-13.63,41h13.82l2.76-9.71h13.83l2.83,9.71h14.59Z"/><text class="cls-2" transform="translate(190.76 23.34)">B<tspan class="cls-3" x="17.81" y="0">e</tspan><tspan class="cls-4" x="32.03" y="0">s</tspan><tspan x="46.11" y="0">t of</tspan><tspan class="cls-5" x="0" y="26">P</tspan><tspan x="17.14" y="26">h</tspan><tspan class="cls-6" x="31.98" y="26">o</tspan><tspan class="cls-7" x="46.73" y="26">t</tspan><tspan class="cls-8" x="57.85" y="26">o</tspan><tspan x="72.24" y="26">jou</tspan><tspan class="cls-9" x="107.63" y="26">r</tspan><tspan x="119.56" y="26">nalism </tspan></text></g></g></svg>