<svg id="Layer_1" data-name="Layer 1" xmlns="http://www.w3.org/2000/svg" viewBox="0 0 571.7 100.31"><title>sonyr_logo_200_converted</title><path d="M298.76,367.9c-20.63,0-39.79-6.19-52.58-17.66a43.15,43.15,0,0,1-14.3-32.58,43.76,43.76,0,0,1,14.3-32.46c11.87-10.82,32.84-17.6,52.58-17.6,21.85,0,39.34,5.5,52.7,17.63a43.32,43.32,0,0,1,14.11,32.43,45.18,45.18,0,0,1-14.11,32.58c-12.44,11.55-32,17.66-52.7,17.66V354.67c11,0,21.12-3.78,28.21-10.84s10.34-15.64,10.34-26.17c0-10.1-3.55-19.53-10.34-26.22-7-6.9-17.4-10.78-28.21-10.78s-21.25,3.84-28.25,10.78c-6.76,6.69-10.3,16.16-10.3,26.22s3.58,19.49,10.3,26.17c7,7,17.38,10.84,28.25,10.84Z" transform="translate(-95.8 -267.6)"/><path d="M147.92,267.65c-11,0-23.58,2.06-34.24,6.82C103.85,278.86,95.8,286,95.8,297.72a24.15,24.15,0,0,0,6.54,16.63c2.87,2.64,7.48,7.13,19.53,9.77,5.39,1.18,16.91,3,28.39,4.19s22.59,2.34,27.15,3.5c3.63.92,9.73,2.18,9.73,9s-6.42,8.89-7.54,9.33-8.81,4-22.65,4c-10.22,0-22.51-3.08-27-4.68-5.16-1.84-10.58-4.26-15.63-10.43a18,18,0,0,1-3.24-9.91H98.58v35.1H112.5v-4.74a2,2,0,0,1,3-1.7,109.94,109.94,0,0,0,20.37,6.58c7.32,1.53,12,2.63,21.14,2.63a90.79,90.79,0,0,0,28.33-4,49.56,49.56,0,0,0,16.82-8.32,23,23,0,0,0,9-18.47A25.79,25.79,0,0,0,203.9,318a32,32,0,0,0-9-6.14A67.24,67.24,0,0,0,183.8,308c-7.18-1.76-23.4-3.93-31.16-4.74-8.14-.85-22.26-2-27.89-3.77-1.71-.53-5.19-2.19-5.19-6.23,0-2.88,1.59-5.32,4.74-7.29,5-3.13,15.1-5.08,25.62-5.08a74.35,74.35,0,0,1,29.69,5.8,32.34,32.34,0,0,1,7.07,4.21,21.29,21.29,0,0,1,7,11.65h11.24V272H192.33v3.54c0,1.15-1.18,2.64-3.42,1.41C183.29,274,167.4,267.67,147.92,267.65Z" transform="translate(-95.8 -267.6)"/><path d="M423.1,273.2l61.25,55.27-.63-37.21c-.06-4.88-1-6.92-6.23-6.92H466V273.21h52.37v11.13H507.1c-5.38,0-5.72,1.72-5.79,6.92l.95,71.12H484.33l-70.55-63V344.1c.07,4.86.29,7.14,5.3,7.14h12.58v11.13H380.23V351.24h12c4.5,0,4.32-4.28,4.32-7.4V291.68c0-3.37-.48-7.33-7.53-7.33h-9.75V273.2Z" transform="translate(-95.8 -267.6)"/><path d="M578.19,351.22a24.12,24.12,0,0,0,3.1-.19,3.85,3.85,0,0,0,2.41-2.14,12.46,12.46,0,0,0,.24-2.41s0-17,0-17.6c0-.42,0-.61-.75-1.54s-32.08-36.5-33.52-38.06c-1.78-1.94-4.9-4.94-9.65-4.94H529.15V273.2h61.41v11.13h-7.4c-1.71,0-2.84,1.62-1.38,3.43,0,0,20.66,24.72,20.86,25s.36.32.62.08,21.18-24.83,21.35-25a2.15,2.15,0,0,0-1.83-3.45h-7.6V273.2h50.34v11.14H654.28c-4.08,0-5.75.76-8.81,4.23-1.41,1.58-33,37.69-33.9,38.66a2.39,2.39,0,0,0-.41,1.65v17.59a13.3,13.3,0,0,0,.24,2.41,3.87,3.87,0,0,0,2.42,2.14,23.43,23.43,0,0,0,3.07.19h11.5v11.14h-61.1V351.21Z" transform="translate(-95.8 -267.6)"/><path d="M655.2,361.82a10.44,10.44,0,1,1,10.43-10.44,10.44,10.44,0,0,1-10.43,10.44v1.86a12.3,12.3,0,1,0-12.3-12.3,12.3,12.3,0,0,0,12.3,12.3Z" transform="translate(-95.8 -267.6)"/><path d="M659.68,351.61a.22.22,0,0,0,0,.4c.95.61,1.19,1.71,1.22,3.38,0,1.92.29,3.08,1,3.58h-2.53a3.89,3.89,0,0,1-.67-2c0-1.63.12-4.52-2.88-4.27h-4.17v-1.94h4.77c1.37,0,2.87-.37,2.87-2.43s-1.46-2.53-2.9-2.53h-4.67V359h-2.18V343.85h6.81c2.29-.06,5.27.77,5.27,4.15a3.91,3.91,0,0,1-2,3.63" transform="translate(-95.8 -267.6)"/></svg>