<svg id="Layer_1" data-name="Layer 1" xmlns="http://www.w3.org/2000/svg" viewBox="0 0 244.21 88.67"><defs><style>.cls-1{fill:#fff;}.cls-2{fill:#608cad;}.cls-3{fill:#7a8287;}.cls-4{fill:#d44500;}</style></defs><title>Syr_Newhouse_RGB_whitebgrnd</title><rect class="cls-1" width="244.21" height="88.67"/><path class="cls-2" d="M129.54,37.14c0-.36-.07-.69-.13-1s-.13-.64-.21-.94-.19-.59-.3-.87a6.4,6.4,0,0,0-.38-.79c-.15-.25-.3-.49-.47-.72a6.75,6.75,0,0,0-.56-.64,6.89,6.89,0,0,0-.63-.57l-.56-.38a5.76,5.76,0,0,0-.6-.33l-.64-.28-.69-.23c-.24-.07-.48-.12-.73-.18s-.51-.09-.78-.12S122.32,30,122,30s-.57,0-.86,0-.73,0-1.07,0-.68.07-1,.13a8.25,8.25,0,0,0-.92.22,7.26,7.26,0,0,0-.86.31,5.27,5.27,0,0,0-.79.39q-.37.23-.72.48a5.89,5.89,0,0,0-.65.57,6.22,6.22,0,0,0-.58.66V23.6l-5.5-2.39V53.35h5.51V41.61c0-.21,0-.41,0-.61s0-.4,0-.6.06-.38.1-.56a4.71,4.71,0,0,1,.12-.54c.05-.18.11-.35.17-.51s.13-.33.2-.49a3.88,3.88,0,0,1,.24-.45c.08-.15.18-.29.27-.44s.25-.34.38-.49a4.22,4.22,0,0,1,.41-.43,3.32,3.32,0,0,1,.47-.37,4.27,4.27,0,0,1,.51-.3,4.53,4.53,0,0,1,.55-.23,5.25,5.25,0,0,1,.6-.16,4.28,4.28,0,0,1,.64-.1,5.12,5.12,0,0,1,.69,0,7.06,7.06,0,0,1,.95.07,4.2,4.2,0,0,1,.83.22,3.19,3.19,0,0,1,.69.35,2.74,2.74,0,0,1,.58.49,3.29,3.29,0,0,1,.44.64,4.14,4.14,0,0,1,.32.77,6,6,0,0,1,.19.92,8.78,8.78,0,0,1,.06,1.06V53.35h5.51V38.23C129.58,37.85,129.57,37.49,129.54,37.14Z"/><path class="cls-2" d="M14.08,53.38V20.31h2.21L37,41V20.31h6.61V53.38H41.2L20.7,32.87V53.38Z"/><path class="cls-2" d="M71.7,43.26H54.81a5.36,5.36,0,0,0,1.9,4.07,5.73,5.73,0,0,0,4,1.53,7.58,7.58,0,0,0,6.59-3.25L72,48.32q-3.66,5.59-11.24,5.6a11.28,11.28,0,0,1-8.63-3.43A12.07,12.07,0,0,1,49,42a12.11,12.11,0,0,1,3.14-8.6A11.15,11.15,0,0,1,60.73,30Q71.7,30,71.7,43.26ZM54.81,39H65.92a4.2,4.2,0,0,0-1.22-2.71,5,5,0,0,0-4-1.81,6,6,0,0,0-3.89,1.29A5.74,5.74,0,0,0,54.81,39Z"/><path class="cls-2" d="M79.83,53.38l-6.6-22.85h5.69l3.84,15.53h.09l4.29-15.53h5L96.4,46.06h.09l3.83-15.53H106L99.42,53.38H94L89.67,38.07h-.09L85.24,53.38Z"/><path class="cls-2" d="M144.44,30a11.22,11.22,0,0,1,8.62,3.43A12,12,0,0,1,156.13,42a12,12,0,0,1-3.07,8.54,12.56,12.56,0,0,1-17.25,0A12,12,0,0,1,132.74,42a12.11,12.11,0,0,1,3.14-8.6A11.13,11.13,0,0,1,144.44,30Zm0,5.05A5.27,5.27,0,0,0,140,37.17,7.63,7.63,0,0,0,138.52,42,7.66,7.66,0,0,0,140,46.74a5.68,5.68,0,0,0,8.85,0A7.66,7.66,0,0,0,150.35,42a7.63,7.63,0,0,0-1.49-4.78A5.26,5.26,0,0,0,144.44,35Z"/><path class="cls-2" d="M180.6,30.53V53.38h-5.51V51.12c-1.45,1.86-3.65,2.8-6.59,2.8a9.07,9.07,0,0,1-5.67-1.63c-1.82-1.41-2.73-3.63-2.73-6.64V30.53h5.51V44.07q0,4.51,4.06,4.52A5.11,5.11,0,0,0,174,46.74a6.47,6.47,0,0,0,1.13-3.93V30.53Z"/><path class="cls-2" d="M204.57,34.14l-3.83,3.61c-1-2.13-2.88-3.22-5.74-3.25s-4.2.71-4.2,2.21q0,1.55,3.75,2.26a40.56,40.56,0,0,1,6.91,1.63,5.51,5.51,0,0,1,3.75,5.33,7,7,0,0,1-3.12,6,12.1,12.1,0,0,1-7,1.94q-7.41,0-11.07-4.16l4.16-3.2q1.94,2.84,6.59,2.84a5.84,5.84,0,0,0,3.21-.86,2.25,2.25,0,0,0,1.22-1.8c0-1-1.22-1.73-3.66-2.21a48.5,48.5,0,0,1-6.82-1.72A5.61,5.61,0,0,1,185,37.39,6.33,6.33,0,0,1,188,31.75,12.8,12.8,0,0,1,195.14,30Q201.23,30,204.57,34.14Z"/><path class="cls-2" d="M229.81,43.26H212.93a5.35,5.35,0,0,0,1.89,4.07,5.76,5.76,0,0,0,4,1.53,7.57,7.57,0,0,0,6.59-3.25l4.65,2.71q-3.66,5.59-11.24,5.6a11.24,11.24,0,0,1-8.62-3.43A12,12,0,0,1,207.15,42a12.11,12.11,0,0,1,3.13-8.6A11.16,11.16,0,0,1,218.84,30Q229.82,30,229.81,43.26ZM212.93,39H224a4.15,4.15,0,0,0-1.22-2.71,5,5,0,0,0-4-1.81A5.94,5.94,0,0,0,215,35.79,5.69,5.69,0,0,0,212.93,39Z"/><path class="cls-3" d="M54.2,23.19c3.84-3,8.77-4.83,13.42-6.06,12.84-3.41,26.31-.7,38.13,4.84.69.33,2.67-.67,1.71-1.12-12.23-5.74-25.63-8.19-38.94-5.21-5.4,1.21-11.29,3.37-15.7,6.83-1.17.92.67,1.28,1.38.72Z"/><path class="cls-3" d="M176.25,14.35c-3.83,3.73-9.08,6.24-14,8.17-14.09,5.56-29.88,5.12-44.43,1.72-1.17-.27-2.25,1.06-.79,1.4,15,3.5,30.75,3.94,45.36-1.33,5.48-2,11.42-4.8,15.67-8.93.9-.87-1.14-1.7-1.83-1Z"/><path class="cls-4" d="M16.41,70.37c0,.76,0,2.09,1.07,2.09a1.18,1.18,0,0,0,1.1-1.31c0-2.42-4.5-3-4.5-7,0-2,1.11-3.7,3.21-3.7s3.08,1.7,3.14,4.14H18.22c0-.76,0-2-1-2-.59,0-.94.5-.94,1.24,0,2.31,4.5,3.09,4.5,7,0,2.07-1.18,3.73-3.41,3.73-2.65,0-3.18-2.32-3.18-4.19Z"/><polygon class="cls-4" points="24.82 69.05 22.55 60.72 25.01 60.72 26.19 66.04 26.23 66.04 27.49 60.72 29.56 60.72 27.3 68.82 27.3 74.29 24.82 74.29 24.82 69.05"/><path class="cls-4" d="M32,60.72h2.78c2.36,0,3.93,1,3.93,3.85a3.86,3.86,0,0,1-1.45,3.32l1.47,6.4h-2.5L35,68.46h-.59v5.83H32Zm2.48,5.76h.49c.92,0,1.26-.92,1.26-1.89,0-1.47-.54-1.89-1.37-1.89h-.38Z"/><path class="cls-4" d="M42.83,60.72h3.59l1.67,13.57H45.71l-.36-3h-2l-.35,3H40.93Zm1.59,2.1h0L43.6,69.3h1.54Z"/><path class="cls-4" d="M55.07,65.64c0-2.25-.28-3.09-.89-3.09s-1,.34-1,5c0,4.46.26,4.95,1,4.95s1-1.25,1-3.22l2.1.1c0,2.36-.34,5.22-3.24,5.22-2.65,0-3.53-2.59-3.53-7,0-5.19,1.57-7.06,3.53-7.06,2.86,0,3.2,2.63,3.2,5.11Z"/><path class="cls-4" d="M60.49,60.72H63V71.23c0,.61.13,1.23.85,1.23s.92-.59.92-1.23V60.72h2.1V70.9c0,2.67-1.19,3.66-3.17,3.66s-3.18-1-3.18-3.66Z"/><path class="cls-4" d="M72,70.37c0,.76,0,2.09,1.06,2.09a1.18,1.18,0,0,0,1.11-1.31c0-2.42-4.5-3-4.5-7,0-2,1.11-3.7,3.2-3.7s3.09,1.7,3.15,4.14H73.76c0-.76,0-2-1-2-.59,0-.93.5-.93,1.24,0,2.31,4.5,3.09,4.5,7,0,2.07-1.18,3.73-3.41,3.73-2.65,0-3.19-2.32-3.19-4.19Z"/><polygon class="cls-4" points="79.21 60.72 84.81 60.72 84.81 62.82 81.69 62.82 81.69 66.29 84 66.29 84 68.5 81.69 68.5 81.69 72.2 84.95 72.2 84.95 74.3 79.21 74.3 79.21 60.72"/><path class="cls-4" d="M93.32,60.72H95.8v10.5c0,.61.13,1.24.86,1.24s.91-.59.91-1.24V60.72h2.1V70.9c0,2.67-1.18,3.66-3.16,3.66s-3.19-1-3.19-3.66Z"/><polygon class="cls-4" points="102.99 60.72 105.41 60.72 107.68 67.89 107.72 67.89 107.72 60.72 109.7 60.72 109.7 74.29 107.77 74.29 105.12 66.08 105.08 66.08 105.08 74.29 102.99 74.29 102.99 60.72"/><rect class="cls-4" x="113.01" y="60.72" width="2.48" height="13.57"/><polygon class="cls-4" points="118.18 60.72 120.6 60.72 121.77 70.25 121.8 70.25 123.08 60.72 125.08 60.72 123.04 74.29 120.2 74.29 118.18 60.72"/><polygon class="cls-4" points="127.86 60.72 133.47 60.72 133.47 62.82 130.34 62.82 130.34 66.29 132.65 66.29 132.65 68.5 130.34 68.5 130.34 72.2 133.6 72.2 133.6 74.29 127.86 74.29 127.86 60.72"/><path class="cls-4" d="M136.48,60.72h2.78c2.37,0,3.93,1,3.93,3.85a3.83,3.83,0,0,1-1.45,3.32l1.47,6.4h-2.5l-1.16-5.83H139v5.83h-2.48ZM139,66.48h.49c.92,0,1.26-.92,1.26-1.89,0-1.47-.53-1.89-1.37-1.89H139Z"/><path class="cls-4" d="M147.84,70.37c0,.76,0,2.09,1.07,2.09A1.18,1.18,0,0,0,150,71.15c0-2.42-4.5-3-4.5-7,0-2,1.1-3.7,3.2-3.7s3.09,1.7,3.14,4.14h-2.21c0-.76,0-2-1-2-.59,0-.93.5-.93,1.24,0,2.31,4.5,3.09,4.5,7,0,2.08-1.18,3.74-3.42,3.74-2.64,0-3.18-2.33-3.18-4.19Z"/><rect class="cls-4" x="155.01" y="60.72" width="2.48" height="13.57"/><polygon class="cls-4" points="162.04 62.82 159.91 62.82 159.91 60.72 166.66 60.72 166.66 62.82 164.52 62.82 164.52 74.29 162.04 74.29 162.04 62.82"/><polygon class="cls-4" points="170.32 69.05 168.05 60.72 170.51 60.72 171.69 66.04 171.73 66.04 172.99 60.72 175.06 60.72 172.8 68.82 172.8 74.29 170.32 74.29 170.32 69.05"/></svg>