<?xml version="1.0" encoding="utf-8"?>
<svg xmlns="http://www.w3.org/2000/svg"
	xmlns:xlink="http://www.w3.org/1999/xlink"
	width="27px" height="23px" viewBox="0 0 27 23">
<path fillRule="evenodd" d="M 18.47 0.78C 20.59 0.74 21.72 1.5 22.8 2.47 23.71 2.39 24.9 1.89 25.61 1.54 25.83 1.42 26.06 1.29 26.29 1.17 25.89 2.24 25.34 3.07 24.51 3.7 24.32 3.84 24.14 4.03 23.91 4.12 23.91 4.12 23.91 4.13 23.91 4.13 25.1 4.12 26.08 3.59 27.01 3.31 27.01 3.31 27.01 3.32 27.01 3.32 26.52 4.08 25.86 4.86 25.15 5.42 24.87 5.64 24.58 5.86 24.3 6.08 24.31 7.32 24.28 8.5 24.04 9.54 22.67 15.59 19.05 19.69 13.31 21.45 11.25 22.08 7.92 22.34 5.56 21.76 4.39 21.48 3.33 21.16 2.34 20.73 1.79 20.49 1.28 20.24 0.79 19.94 0.63 19.85 0.47 19.75 0.31 19.66 0.84 19.67 1.46 19.82 2.06 19.72 2.6 19.64 3.13 19.66 3.62 19.55 4.86 19.28 5.96 18.93 6.91 18.38 7.37 18.12 8.07 17.81 8.39 17.43 7.78 17.44 7.22 17.3 6.76 17.14 4.99 16.53 3.96 15.39 3.29 13.69 3.82 13.75 5.37 13.89 5.73 13.59 5.06 13.55 4.41 13.17 3.94 12.88 2.52 12.01 1.35 10.53 1.36 8.27 1.55 8.36 1.74 8.45 1.92 8.53 2.28 8.68 2.65 8.76 3.07 8.85 3.25 8.88 3.62 8.99 3.82 8.91 3.81 8.91 3.8 8.91 3.8 8.91 3.52 8.6 3.07 8.39 2.79 8.05 1.88 6.93 1.02 5.21 1.56 3.16 1.7 2.64 1.92 2.18 2.15 1.76 2.16 1.77 2.17 1.77 2.18 1.77 2.29 1.99 2.52 2.15 2.67 2.34 3.14 2.91 3.72 3.42 4.3 3.87 6.3 5.41 8.11 6.35 11 7.05 11.73 7.23 12.58 7.37 13.46 7.37 13.21 6.66 13.29 5.52 13.48 4.84 13.97 3.12 15.03 1.89 16.58 1.22 16.96 1.07 17.37 0.95 17.8 0.86 18.02 0.83 18.25 0.8 18.47 0.78Z" fill="rgb(255,255,255)"/></svg>