<svg id="Layer_1" data-name="Layer 1" xmlns="http://www.w3.org/2000/svg" viewBox="0 0 242.79 137.51"><defs><style>.cls-1{fill:#414042;}</style></defs><title>VIS_logo</title><rect class="cls-1" x="123.56" y="0.08" width="19.83" height="108.59" rx="3.62" ry="3.62"/><path class="cls-1" d="M254.17,112.74h0" transform="translate(-52.61 -112.49)"/><path class="cls-1" d="M163,117.54,112,247.91a3.65,3.65,0,0,1-3.24,2.1h-1.9a3.9,3.9,0,0,1-3.25-2.1L53,117.54a3.36,3.36,0,0,1,3.23-5H92.81a3.74,3.74,0,0,1,3.61,3.62v12.58a3.74,3.74,0,0,1-3.61,3.62H79.47l28,78.7h1.15L143,114.68a3.55,3.55,0,0,1,3.25-2.09h13.54a3.36,3.36,0,0,1,3.24,5" transform="translate(-52.61 -112.49)"/><path class="cls-1" d="M295.39,212.67c0,19.82-11.45,37.45-42.5,37.34H225a3.23,3.23,0,0,1-3.1-3.14V233.51a3.23,3.23,0,0,1,3.1-3.14l27.7-.22c16.42-.71,21.46-8.05,21.46-17.75,0-12.13-7.43-16.16-26.31-24-19.45-8.19-34.7-17-34.7-39.09,0-9.11,4.08-19.4,10.64-25.67,14.85-14.16,27.36-10.91,57.27-10.69a3.22,3.22,0,0,1,3.1,3.12v11.36h0v7.36a3.76,3.76,0,0,1-3.62,3.62H268a3.76,3.76,0,0,1-3.62-3.62v-3.74h-6.6c-15.72.25-25.09,5.69-25.09,17.5,0,12.11,8.33,16.19,24.15,22.68,22.13,9,38.59,18.13,38.59,41.41" transform="translate(-52.61 -112.49)"/><polygon class="cls-1" points="200.8 0.26 200.01 0.26 200.01 0.24 200.8 0.26"/><path class="cls-1" d="M209,230.3a3.75,3.75,0,0,1,3.66,3.6v12.51A3.76,3.76,0,0,1,209,250H159.12a3.77,3.77,0,0,1-3.66-3.6V233.9a3.76,3.76,0,0,1,3.66-3.6Z" transform="translate(-52.61 -112.49)"/></svg>